<svg width="334" height="93" viewBox="0 0 334 93" fill="none" xmlns="http://www.w3.org/2000/svg">
<path d="M75.3459 31.888C75.0329 31.2762 74.4121 30.8958 73.7263 30.8958C73.4398 30.8958 73.1533 30.965 72.8972 31.098C64.6943 35.3194 57.6082 38.4183 51.8313 40.3109C50.4624 38.534 48.5204 37.1096 46.2017 36.1839C44.4773 35.4949 42.6441 35.1319 40.8997 35.1319C40.4448 35.1319 39.9938 35.1571 39.5613 35.2063C37.1471 35.4843 35.1866 36.5403 34.0431 38.1789C32.8069 39.9491 32.9169 42.3059 34.3111 43.9085C35.623 45.4167 37.8316 46.1815 40.8785 46.1815C42.3934 46.1815 44.143 45.9913 46.077 45.6162C47.3213 45.3755 48.6663 45.0523 50.0764 44.656C50.3722 45.6162 50.4398 46.6603 50.2767 47.7602C49.5458 52.7024 47.0626 56.7523 42.8961 59.798C40.4832 61.5615 37.6193 62.9168 34.384 63.8265C31.5374 64.6272 28.4706 65.0501 25.5138 65.0501C23.9658 65.0501 22.4894 64.9357 21.1271 64.7096C17.206 64.0593 13.6073 62.1122 10.7195 59.0784C7.89543 56.1099 5.79428 52.1758 4.64554 47.703C3.07764 41.5983 3.38538 34.7488 5.51174 28.4154C7.91268 21.2653 12.5779 14.8002 19.0048 9.71828C24.0282 5.74558 29.3885 3.64685 34.5048 3.64685C35.099 3.64685 35.6973 3.67478 36.2822 3.73064C40.8719 4.16821 45.0357 6.31216 47.7059 9.61055C49.8323 12.2373 50.4955 15.4532 50.6773 17.689C50.8789 20.1747 50.5513 22.0447 50.5486 22.0633C50.3642 23.0488 51.0155 24.0038 52.0011 24.19C52.1125 24.2113 52.2266 24.2219 52.3394 24.2219C53.2122 24.2219 53.9643 23.5968 54.1261 22.735C54.1951 22.3705 55.7405 13.7455 50.5314 7.31099C47.251 3.25849 42.1825 0.629088 36.6285 0.0997497C35.9374 0.0332499 35.229 0 34.5233 0C31.877 0 29.1842 0.462839 26.5193 1.37522C23.1978 2.51236 19.9107 4.35574 16.7511 6.8548C9.76843 12.3756 4.68932 19.4299 2.06287 27.2516C-0.319496 34.3472 -0.644485 41.7326 1.12107 48.6127C2.425 53.6893 4.83258 58.1794 8.08645 61.5975C11.5234 65.2084 15.8265 67.5292 20.5329 68.3099C22.0597 68.5626 23.7111 68.6917 25.4435 68.6917C28.7637 68.6917 32.2126 68.2142 35.4174 67.3098C39.0692 66.2804 42.3058 64.7442 45.0397 62.7466C49.9543 59.1543 53.0106 54.1575 53.8768 48.2948C54.1182 46.6616 54.0054 45.0776 53.5412 43.5827C59.4056 41.6103 66.4744 38.5034 74.558 34.3432C75.4507 33.8843 75.8036 32.7818 75.3459 31.8867V31.888ZM47.9381 41.456C47.0493 41.6834 46.1938 41.8789 45.3859 42.0345C43.684 42.3644 42.1758 42.532 40.9037 42.532C38.1539 42.532 37.2612 41.7512 37.0529 41.5118C36.5701 40.9559 36.9747 40.3415 37.0224 40.2723C37.6817 39.328 39.1024 38.7854 40.9183 38.7854C42.201 38.7854 43.5607 39.058 44.8527 39.574C45.5318 39.8454 46.7867 40.4359 47.9368 41.456H47.9381Z" fill="#FECB2B"/>
<path d="M36.903 65.5289C36.903 64.5261 36.0594 63.6802 35.0592 63.6802C34.981 63.6802 34.9027 63.6869 34.8271 63.6975C34.6798 63.7414 34.5326 63.7853 34.384 63.8265C31.5374 64.6272 28.4706 65.0501 25.5138 65.0501C23.9658 65.0501 22.4894 64.9357 21.1271 64.7096C17.206 64.0593 13.6073 62.1122 10.7195 59.0784C7.89543 56.1099 5.79428 52.1758 4.64554 47.703C3.07764 41.5983 3.38538 34.7488 5.51174 28.4154C7.91268 21.2653 12.5779 14.8002 19.0048 9.71828C24.0282 5.74558 29.3885 3.64685 34.5048 3.64685C35.099 3.64685 35.6973 3.67478 36.2822 3.73064C40.8719 4.16821 45.0357 6.31216 47.7059 9.61055C49.8323 12.2373 50.4955 15.4532 50.6773 17.689C50.8789 20.1747 50.5513 22.0447 50.5486 22.0633C50.3642 23.0488 51.0155 24.0038 52.0011 24.19C52.1125 24.2113 52.2266 24.2219 52.3394 24.2219C53.2122 24.2219 53.9643 23.5968 54.1261 22.735C54.1951 22.3705 55.7405 13.7455 50.5314 7.31099C47.251 3.25849 42.1825 0.629088 36.6285 0.0997497C35.9374 0.0332499 35.229 0 34.5233 0C31.877 0 29.1842 0.462839 26.5193 1.37522C23.1978 2.51236 19.9107 4.35574 16.7511 6.8548C9.76843 12.3756 4.68932 19.4299 2.06287 27.2516C-0.319496 34.3472 -0.644485 41.7326 1.12107 48.6127C2.425 53.6893 4.83258 58.1794 8.08645 61.5975C11.5234 65.2084 15.8265 67.5292 20.5329 68.3099C22.0597 68.5626 23.7111 68.6917 25.4435 68.6917C28.7637 68.6917 32.2126 68.2142 35.4174 67.3098C35.5699 67.2672 35.7211 67.222 35.871 67.1768C36.4746 66.8682 36.903 66.2365 36.903 65.5276V65.5289Z" fill="#E6007E"/>
<path d="M0.497466 33.5611C0.500119 34.5613 1.34244 35.4045 2.33996 35.4045C3.19023 35.4045 3.93041 34.7847 4.12939 33.9814C4.43846 32.1035 4.89875 30.2388 5.51026 28.4154C7.9112 21.2653 12.5765 14.8002 19.0033 9.71828C24.0267 5.74558 29.387 3.64685 34.5033 3.64685C35.0975 3.64685 35.6958 3.67478 36.2808 3.73064C40.8704 4.16821 45.0342 6.31216 47.7045 9.61055C49.8308 12.2373 50.4941 15.4532 50.6758 17.689C50.8774 20.1747 50.5498 22.0447 50.5471 22.0633C50.3627 23.0488 51.0141 24.0038 51.9996 24.19C52.1111 24.2113 52.2251 24.2219 52.3379 24.2219C53.2107 24.2219 53.9628 23.5968 54.1247 22.735C54.1936 22.3705 55.739 13.7455 50.5299 7.31099C47.2508 3.25849 42.1823 0.629088 36.6283 0.0997497C35.9372 0.0332499 35.2289 0 34.5232 0C31.8768 0 29.1841 0.462839 26.5191 1.37522C23.1976 2.51236 19.9106 4.35574 16.7509 6.8548C9.76828 12.3756 4.68916 19.4299 2.06272 27.2516C1.04796 30.2734 0.408592 33.3483 0.141968 36.414C0.22421 35.463 0.343594 34.5121 0.497466 33.5611V33.5611Z" fill="#70B852"/>
<path d="M74.9757 59.8314C74.4106 59.8314 73.8442 59.7888 73.2738 59.7023C70.65 59.306 68.4029 57.4946 66.9464 54.6018C65.6982 52.1227 65.0681 48.9453 65.1703 45.6563C65.291 41.7594 66.4238 38.0739 68.3591 35.2783C70.6871 31.9161 74.0551 29.9503 78.0982 29.5952C82.1493 29.2388 85.3912 30.2044 87.7312 32.464C89.3614 34.0374 90.5062 36.2186 91.1336 38.9451C91.8963 42.2555 91.4506 45.5698 89.8814 48.2763C87.4155 52.527 84.7413 55.6472 81.9344 57.5478C79.6926 59.0666 77.358 59.8314 74.9757 59.8314V59.8314ZM79.6741 33.0891C79.2668 33.0891 78.845 33.1077 78.4086 33.1463C75.4094 33.4096 73.0111 34.8115 71.2801 37.3105C69.7321 39.5462 68.8234 42.5494 68.7239 45.7666C68.6404 48.4705 69.1365 51.0387 70.1207 52.9952C70.7734 54.2919 71.942 55.8959 73.803 56.1765C75.8949 56.4931 77.9032 55.9744 79.9433 54.5925C82.3032 52.9938 84.6126 50.266 86.8079 46.4822C87.9222 44.563 88.2273 42.1703 87.6688 39.7444C87.1992 37.7015 86.3901 36.1162 85.2639 35.0296C83.9255 33.7382 82.0485 33.0865 79.6727 33.0865L79.6741 33.0891Z" fill="#1D1D1B"/>
<path d="M88.9303 57.1433C89.9119 57.1433 90.8537 56.2775 90.8086 55.26C90.8086 55.2374 90.8059 55.2148 90.8046 55.1922C90.0604 53.3475 90.0764 50.0877 90.8829 46.1562C91.753 41.9122 93.4695 37.2625 95.2563 34.3112C95.7657 33.4694 95.4977 32.3734 94.6594 31.864C93.8197 31.3533 92.7267 31.622 92.2186 32.4625C90.209 35.7849 88.3625 40.7564 87.4022 45.438C86.7058 48.8321 86.2415 53.2265 87.4672 56.4091C87.8041 56.852 88.3227 57.142 88.9329 57.142L88.9303 57.1433Z" fill="#1D1D1B"/>
<path d="M232.959 33.468C232.996 33.4707 233.034 33.472 233.073 33.472C234.055 33.472 234.996 32.6062 234.951 31.5888C234.926 31.0235 234.675 30.5075 234.277 30.159C232.337 29.4049 230.229 29.4953 228.644 30.0712C225.466 31.2257 222.565 32.706 220.015 34.4748C219.595 32.9547 218.889 31.7909 217.889 30.9597C216.792 30.0486 215.398 29.5951 213.743 29.615C212.169 29.6323 210.381 30.0672 208.277 30.945C204.561 32.4932 201.159 34.5187 198.193 36.93C197.957 35.7397 197.654 34.6943 197.29 33.8072C196.991 33.081 196.646 32.4519 196.258 31.9199C196.352 32.142 196.408 32.3841 196.419 32.6368C196.465 33.6529 195.524 34.5201 194.541 34.5201C194.151 34.5201 193.798 34.4017 193.507 34.2009C194.09 35.1026 194.679 36.7984 195.003 39.5355C195.013 39.6286 195.024 39.7217 195.035 39.8148C194.298 40.5702 193.601 41.3549 192.945 42.1636C189.82 46.0166 187.751 50.3111 187.267 53.946C186.833 57.2085 187.837 58.7446 188.756 59.4588C190.034 60.451 191.521 60.6731 192.945 60.0866C195.69 58.9548 197.77 54.9315 198.509 49.3256C198.771 47.3293 198.908 44.237 198.718 41.19C201.788 38.3332 205.507 35.9591 209.641 34.2368C211.652 33.3989 214.32 32.6262 215.62 33.7061C216.29 34.262 216.708 35.3739 216.861 36.9713C215.66 38.0525 214.563 39.2123 213.582 40.4399C209.69 45.3077 208.631 49.8855 208.346 52.1811C208.152 53.7398 208.191 55.2015 208.457 56.4092C208.773 57.8416 209.412 58.9189 210.308 59.5253C211.419 60.2794 212.649 60.4444 213.769 59.9895C216.044 59.0665 217.613 55.8107 219.016 49.1021C219.648 46.0804 220.332 42.5931 220.459 39.4397C220.471 39.1391 220.478 38.8465 220.479 38.5606C223.122 36.4486 226.259 34.7275 229.854 33.4215C230.706 33.1116 231.887 33.0584 232.959 33.468V33.468ZM194.986 48.8574C194.692 51.0838 194.149 53.0549 193.412 54.5538C192.565 56.2815 191.806 56.7004 191.594 56.7882C191.458 56.8441 191.291 56.9119 190.946 56.6499C190.82 56.4916 190.486 55.53 190.978 53.3887C191.586 50.75 193.114 47.7575 195.247 44.9885C195.219 46.4754 195.121 47.828 194.984 48.8588L194.986 48.8574ZM215.535 48.3707C215.017 50.8551 214.492 52.7623 213.93 54.2027C213.186 56.1139 212.607 56.5781 212.466 56.6672C212.434 56.6539 212.381 56.6286 212.307 56.5781C212.028 56.3227 211.449 54.7161 212.014 51.7156C212.364 49.8563 213.426 46.1934 216.627 42.3311C216.355 44.366 215.935 46.4621 215.535 48.3693V48.3707Z" fill="#1D1D1B"/>
<path d="M236.225 31.2775C236.238 31.2882 236.253 31.299 236.266 31.311C236.253 31.3003 236.238 31.2882 236.225 31.2775Z" fill="#1D1D1B"/>
<path d="M235.74 30.9224C235.762 30.9371 235.782 30.9504 235.803 30.965C235.782 30.9504 235.762 30.9371 235.74 30.9224Z" fill="#1D1D1B"/>
<path d="M236.466 31.4797C236.481 31.4918 236.496 31.5051 236.509 31.5172C236.494 31.5038 236.481 31.4918 236.466 31.4797Z" fill="#1D1D1B"/>
<path d="M236.004 31.1073C236.018 31.1166 236.03 31.1259 236.042 31.1352C236.028 31.1259 236.016 31.1166 236.004 31.1073Z" fill="#1D1D1B"/>
<path d="M234.699 30.3386C234.743 30.3585 234.785 30.3785 234.829 30.3997C234.787 30.3785 234.743 30.3585 234.699 30.3386Z" fill="#1D1D1B"/>
<path d="M234.458 30.2321C234.492 30.2468 234.528 30.2614 234.563 30.2774C234.528 30.2627 234.492 30.2468 234.458 30.2321Z" fill="#1D1D1B"/>
<path d="M235.247 30.6179C235.272 30.6325 235.297 30.6471 235.323 30.6617C235.297 30.6471 235.272 30.6325 235.247 30.6179Z" fill="#1D1D1B"/>
<path d="M234.967 30.4676C234.998 30.4822 235.027 30.4981 235.056 30.5141C235.027 30.4981 234.996 30.4835 234.967 30.4676Z" fill="#1D1D1B"/>
<path d="M234.081 34.1237C234.096 34.1358 234.109 34.1465 234.124 34.1599C234.109 34.1478 234.096 34.1358 234.081 34.1237Z" fill="#1D1D1B"/>
<path d="M235.483 30.7575C235.502 30.7695 235.522 30.7801 235.54 30.7921C235.522 30.7801 235.502 30.7695 235.483 30.7575Z" fill="#1D1D1B"/>
<path d="M233.635 33.8019C233.635 33.8019 233.645 33.8073 233.649 33.8101C233.645 33.8073 233.64 33.8046 233.635 33.8019Z" fill="#1D1D1B"/>
<path d="M233.785 33.899C233.798 33.9083 233.813 33.9176 233.827 33.9282C233.813 33.9189 233.8 33.9096 233.785 33.899Z" fill="#1D1D1B"/>
<path d="M233.297 33.6157C233.297 33.6157 233.305 33.6189 233.308 33.6221C233.305 33.6205 233.3 33.6189 233.297 33.6157Z" fill="#1D1D1B"/>
<path d="M233.933 34.0054C233.949 34.0174 233.965 34.0295 233.98 34.0415C233.963 34.0295 233.947 34.0174 233.933 34.0054Z" fill="#1D1D1B"/>
<path d="M233.126 33.5359C233.126 33.5359 233.136 33.54 233.141 33.5427C233.136 33.54 233.131 33.5386 233.126 33.5359Z" fill="#1D1D1B"/>
<path d="M235.057 30.5141C235.121 30.5474 235.185 30.582 235.248 30.6179C235.185 30.582 235.122 30.5474 235.057 30.5141Z" fill="#1D1D1B"/>
<path d="M233.826 33.9282C233.862 33.9535 233.898 33.9788 233.933 34.0054C233.898 33.9788 233.862 33.9535 233.826 33.9282Z" fill="#1D1D1B"/>
<path d="M234.276 30.159C234.337 30.1829 234.397 30.2069 234.457 30.2321C234.397 30.2069 234.336 30.1829 234.276 30.159Z" fill="#1D1D1B"/>
<path d="M233.979 34.0413C234.013 34.0679 234.047 34.0958 234.081 34.1237C234.048 34.0958 234.013 34.0679 233.979 34.0413Z" fill="#1D1D1B"/>
<path d="M235.324 30.6617C235.377 30.6923 235.431 30.7243 235.484 30.7575C235.431 30.7256 235.378 30.6937 235.324 30.6617Z" fill="#1D1D1B"/>
<path d="M234.562 30.2774C234.608 30.2973 234.653 30.3173 234.699 30.3386C234.654 30.3173 234.609 30.2973 234.562 30.2774Z" fill="#1D1D1B"/>
<path d="M234.828 30.3997C234.874 30.4224 234.921 30.445 234.967 30.4689C234.921 30.445 234.874 30.4224 234.828 30.3997Z" fill="#1D1D1B"/>
<path d="M234.124 34.1596C234.17 34.1995 234.216 34.2408 234.261 34.2847C234.216 34.2421 234.17 34.2009 234.124 34.1596Z" fill="#1D1D1B"/>
<path d="M236.51 31.5169C236.579 31.5781 236.646 31.6393 236.713 31.7031C236.646 31.6393 236.579 31.5781 236.51 31.5169Z" fill="#1D1D1B"/>
<path d="M233.139 33.5425C233.192 33.5651 233.245 33.5904 233.297 33.6157C233.245 33.5904 233.192 33.5651 233.139 33.5425Z" fill="#1D1D1B"/>
<path d="M236.266 31.3108C236.334 31.3653 236.4 31.4212 236.466 31.4797C236.4 31.4225 236.334 31.3653 236.266 31.3108Z" fill="#1D1D1B"/>
<path d="M232.959 33.468C233.015 33.4893 233.07 33.5119 233.126 33.5359C233.07 33.5119 233.016 33.4893 232.959 33.468Z" fill="#1D1D1B"/>
<path d="M235.803 30.965C235.871 31.0115 235.938 31.0594 236.005 31.1086C235.938 31.0594 235.871 31.0115 235.803 30.965Z" fill="#1D1D1B"/>
<path d="M233.649 33.8112C233.694 33.8391 233.74 33.8697 233.784 33.9003C233.739 33.8697 233.694 33.8404 233.649 33.8112Z" fill="#1D1D1B"/>
<path d="M236.042 31.1366C236.103 31.1831 236.164 31.2297 236.225 31.2775C236.164 31.2297 236.104 31.1818 236.042 31.1366Z" fill="#1D1D1B"/>
<path d="M235.54 30.7921C235.608 30.8346 235.674 30.8772 235.741 30.9224C235.674 30.8785 235.608 30.8346 235.54 30.7921Z" fill="#1D1D1B"/>
<path d="M233.308 33.621C233.419 33.6755 233.529 33.7367 233.637 33.8032C233.529 33.7367 233.419 33.6769 233.308 33.621Z" fill="#1D1D1B"/>
<path d="M253.917 35.4431C253.097 34.9018 251.995 35.1305 251.455 35.9525C249.239 39.332 247.545 42.2793 246.05 44.8794C244.374 47.7948 243.051 50.0983 241.626 51.9151C238.667 55.6883 237.148 56.5009 236.65 56.6751C236.522 56.3214 236.369 55.4781 236.503 53.9101C236.666 51.9922 237.207 49.4945 238.07 46.6869C239.175 43.0852 239.587 39.9571 239.294 37.3889C239.021 34.9922 238.152 33.0783 236.713 31.7031C235.975 30.9982 235.142 30.4955 234.277 30.159C234.675 30.5075 234.926 31.0248 234.951 31.5887C234.996 32.6049 234.056 33.472 233.073 33.472C233.034 33.472 232.996 33.4707 232.959 33.468C233.426 33.6462 233.871 33.9122 234.261 34.2833C236.205 36.1387 236.351 40.1712 234.673 45.6375C233.625 49.0543 233.016 52.0694 232.912 54.3543C232.782 57.2617 233.479 59.137 234.982 59.927C236.292 60.6146 237.85 60.3273 239.611 59.0705C241.001 58.0783 242.62 56.4118 244.42 54.1162C246.002 52.0986 247.452 49.5769 249.13 46.6576C250.6 44.1 252.266 41.2006 254.425 37.9102C254.965 37.0883 254.737 35.9831 253.917 35.4417V35.4431Z" fill="#0072BB"/>
<path d="M106.924 45.1707C106.449 45.1707 105.985 45.3728 105.636 45.6974C104.068 48.2776 102.568 50.7021 100.859 52.6187C98.9651 54.744 97.0059 56.0221 94.6938 56.6406C92.2173 57.3029 91.5142 56.3626 91.2489 56.0088C91.0778 55.7814 90.9306 55.5074 90.8046 55.1935C90.8059 55.2161 90.8086 55.2388 90.8086 55.2614C90.8537 56.2775 89.9132 57.1446 88.9302 57.1446C88.3201 57.1446 87.8014 56.8547 87.4645 56.4118C87.7072 57.0436 88.0163 57.6288 88.4036 58.1475C89.2473 59.2753 90.7038 60.439 93.1299 60.439C93.8648 60.439 94.6872 60.3326 95.6091 60.0853C102.029 58.3669 105.335 53.0456 108.784 47.3678C108.8 47.2654 108.806 47.1617 108.801 47.0553C108.756 46.0352 107.976 45.172 106.923 45.172L106.924 45.1707Z" fill="#70B852"/>
<path d="M120.603 33.1822C120.618 33.1768 120.634 33.1728 120.649 33.1688C120.634 33.1728 120.619 33.1782 120.603 33.1822Z" fill="#0072BB"/>
<path d="M122.341 29.639C122.412 29.6576 122.484 29.6775 122.554 29.6988C122.484 29.6775 122.412 29.6576 122.341 29.639Z" fill="#0072BB"/>
<path d="M122.615 29.7174C122.693 29.7427 122.77 29.768 122.849 29.7972C122.772 29.768 122.693 29.7414 122.615 29.7174Z" fill="#0072BB"/>
<path d="M122.077 29.5804C122.157 29.5951 122.237 29.6124 122.317 29.6323C122.237 29.6124 122.157 29.5964 122.077 29.5804Z" fill="#0072BB"/>
<path d="M120.25 33.3179C120.25 33.3179 120.26 33.3138 120.264 33.3124C120.26 33.3138 120.254 33.3165 120.25 33.3179Z" fill="#0072BB"/>
<path d="M119.512 29.7879C119.703 29.7254 119.893 29.6735 120.082 29.631C119.893 29.6735 119.703 29.7254 119.512 29.7879Z" fill="#0072BB"/>
<path d="M120.104 29.627C120.29 29.5858 120.473 29.5552 120.656 29.5352C120.474 29.5565 120.29 29.5871 120.104 29.627Z" fill="#0072BB"/>
<path d="M120.685 29.5312C120.769 29.5219 120.851 29.5153 120.933 29.5099C120.851 29.5153 120.769 29.5219 120.685 29.5312Z" fill="#0072BB"/>
<path d="M120.958 29.5086C121.046 29.5033 121.133 29.502 121.221 29.502C121.133 29.502 121.047 29.5046 120.958 29.5086Z" fill="#0072BB"/>
<path d="M121.253 29.502C121.328 29.502 121.404 29.5046 121.48 29.5086C121.404 29.5046 121.328 29.502 121.253 29.502Z" fill="#0072BB"/>
<path d="M121.523 29.5113C121.607 29.5166 121.691 29.5246 121.773 29.5339C121.691 29.5246 121.607 29.5166 121.523 29.5113Z" fill="#0072BB"/>
<path d="M121.806 29.5392C121.878 29.5485 121.949 29.5592 122.021 29.5725C121.949 29.5605 121.878 29.5485 121.806 29.5392Z" fill="#0072BB"/>
<path d="M118.644 34.3352C119.075 33.9907 119.485 33.7154 119.863 33.5093C120.225 33.1648 120.457 32.686 120.434 32.17C120.389 31.1499 119.609 30.2867 118.556 30.2867C118.469 30.2867 118.382 30.2933 118.296 30.3066C117.69 30.6258 117.068 31.0368 116.431 31.5449C114.176 33.3417 111.678 36.3182 108.793 40.6474C107.752 42.2101 106.807 43.7662 105.893 45.2718C105.807 45.4141 105.721 45.555 105.636 45.696C105.985 45.3728 106.449 45.1693 106.924 45.1693C107.977 45.1693 108.756 46.0325 108.802 47.0526C108.808 47.159 108.801 47.2628 108.785 47.3652C108.834 47.2854 108.882 47.2056 108.931 47.1258C109.825 45.6521 110.751 44.1293 111.75 42.629C114.391 38.667 116.71 35.8767 118.645 34.3365L118.644 34.3352Z" fill="#0072BB"/>
<path d="M118.297 30.3066C118.5 30.2002 118.702 30.1032 118.902 30.018C118.702 30.1032 118.5 30.2002 118.297 30.3066Z" fill="#0072BB"/>
<path d="M121.344 33.077C121.384 33.081 121.421 33.0877 121.458 33.0943C121.421 33.0863 121.384 33.0797 121.344 33.077Z" fill="#0072BB"/>
<path d="M121.222 33.0717C121.258 33.0717 121.293 33.0717 121.326 33.0757C121.293 33.073 121.258 33.0717 121.222 33.0717Z" fill="#0072BB"/>
<path d="M121.066 33.0797C121.104 33.0757 121.141 33.073 121.177 33.0717C121.14 33.0717 121.103 33.0757 121.066 33.0797Z" fill="#0072BB"/>
<path d="M121.488 33.101C121.525 33.1103 121.561 33.1196 121.595 33.1329C121.561 33.1196 121.525 33.1103 121.488 33.101Z" fill="#0072BB"/>
<path d="M120.787 33.1302C120.81 33.1249 120.834 33.1182 120.856 33.1143C120.834 33.1196 120.811 33.1249 120.787 33.1302Z" fill="#0072BB"/>
<path d="M118.91 30.0154C119.108 29.9316 119.303 29.8571 119.498 29.7932C119.304 29.8571 119.108 29.9302 118.91 30.0154Z" fill="#0072BB"/>
<path d="M120.927 33.0996C120.953 33.0943 120.98 33.0903 121.006 33.0876C120.98 33.0916 120.953 33.0956 120.927 33.0996Z" fill="#0072BB"/>
<path d="M119.497 29.7934C119.497 29.7934 119.507 29.7893 119.513 29.7879C119.507 29.7893 119.502 29.792 119.497 29.7934Z" fill="#0072BB"/>
<path d="M120.933 29.51C120.941 29.51 120.95 29.51 120.958 29.5086C120.95 29.5086 120.941 29.5086 120.933 29.51Z" fill="#0072BB"/>
<path d="M120.082 29.6325C120.09 29.6311 120.098 29.6284 120.105 29.627C120.097 29.6284 120.088 29.6298 120.082 29.6325Z" fill="#0072BB"/>
<path d="M118.902 30.0189C118.902 30.0189 118.909 30.0157 118.912 30.014C118.909 30.014 118.906 30.0173 118.902 30.0189Z" fill="#0072BB"/>
<path d="M120.656 29.534C120.666 29.534 120.677 29.5312 120.686 29.5312C120.677 29.5312 120.666 29.5326 120.656 29.534Z" fill="#0072BB"/>
<path d="M121.458 33.0943C121.468 33.0971 121.478 33.0984 121.489 33.1012C121.479 33.0984 121.47 33.0971 121.458 33.0943Z" fill="#0072BB"/>
<path d="M120.856 33.1143C120.88 33.1089 120.904 33.1049 120.928 33.101C120.904 33.1049 120.881 33.1089 120.856 33.1143Z" fill="#0072BB"/>
<path d="M120.648 33.1688C120.696 33.1542 120.742 33.1422 120.787 33.1302C120.742 33.1409 120.696 33.1542 120.648 33.1688Z" fill="#0072BB"/>
<path d="M120.263 33.3124C120.381 33.2606 120.494 33.218 120.603 33.1834C120.494 33.218 120.38 33.2619 120.263 33.3124Z" fill="#0072BB"/>
<path d="M121.006 33.0877C121.026 33.085 121.046 33.0823 121.066 33.0797C121.046 33.0823 121.026 33.085 121.006 33.0877Z" fill="#0072BB"/>
<path d="M121.48 29.5086C121.494 29.5086 121.509 29.51 121.524 29.5113C121.509 29.5113 121.494 29.51 121.48 29.5086Z" fill="#0072BB"/>
<path d="M121.774 29.5339C121.785 29.5339 121.796 29.5367 121.808 29.538C121.797 29.5367 121.786 29.5353 121.774 29.5339Z" fill="#0072BB"/>
<path d="M122.021 29.5711C122.039 29.5738 122.058 29.5778 122.077 29.5804C122.058 29.5765 122.039 29.5738 122.021 29.5711Z" fill="#0072BB"/>
<path d="M119.863 33.5093C119.995 33.4361 120.124 33.3736 120.249 33.3177C120.124 33.3723 119.995 33.4361 119.863 33.5093Z" fill="#0072BB"/>
<path d="M122.317 29.6323C122.325 29.6337 122.333 29.6364 122.341 29.6392C122.333 29.6364 122.325 29.6351 122.317 29.6323Z" fill="#0072BB"/>
<path d="M122.554 29.6988C122.574 29.7055 122.595 29.7108 122.615 29.7174C122.595 29.7108 122.574 29.7041 122.554 29.6988Z" fill="#0072BB"/>
<path d="M194.136 35.5215C194.147 35.5523 194.158 35.5818 194.17 35.6139C194.159 35.5831 194.149 35.5523 194.136 35.5215Z" fill="#FECB2B"/>
<path d="M194.066 35.3353C194.078 35.3659 194.09 35.3965 194.102 35.4284C194.09 35.3965 194.078 35.3659 194.066 35.3353Z" fill="#FECB2B"/>
<path d="M193.984 35.1292C193.992 35.1493 194.002 35.1707 194.01 35.1908C194.002 35.1694 193.992 35.1493 193.984 35.1292Z" fill="#FECB2B"/>
<path d="M194.347 36.1639C194.366 36.2278 194.385 36.2929 194.403 36.3581C194.385 36.2916 194.366 36.2278 194.347 36.1639Z" fill="#FECB2B"/>
<path d="M194.426 36.4379C194.44 36.4884 194.454 36.5403 194.467 36.5922C194.454 36.5403 194.439 36.4884 194.426 36.4379Z" fill="#FECB2B"/>
<path d="M194.2 35.7038C194.219 35.7583 194.238 35.8142 194.256 35.8713C194.238 35.8142 194.219 35.7583 194.2 35.7038Z" fill="#FECB2B"/>
<path d="M193.927 34.9962C193.932 35.0082 193.938 35.0201 193.943 35.0321C193.938 35.0201 193.932 35.0082 193.927 34.9962Z" fill="#FECB2B"/>
<path d="M194.284 35.9565C194.297 35.9964 194.309 36.0376 194.323 36.0788C194.309 36.0376 194.297 35.9964 194.284 35.9565Z" fill="#FECB2B"/>
<path d="M196.807 32.7897C196.814 32.803 196.822 32.8163 196.828 32.8296C196.822 32.8163 196.814 32.8017 196.807 32.7897Z" fill="#FECB2B"/>
<path d="M196.427 32.1633C196.449 32.1952 196.47 32.2271 196.492 32.2591C196.47 32.2271 196.449 32.1939 196.427 32.1633Z" fill="#FECB2B"/>
<path d="M196.597 32.4293C196.617 32.4612 196.636 32.4918 196.656 32.5237C196.637 32.4918 196.617 32.4599 196.597 32.4293Z" fill="#FECB2B"/>
<path d="M194.488 36.672C194.507 36.7451 194.525 36.8196 194.544 36.8941C194.525 36.8183 194.507 36.7438 194.488 36.672Z" fill="#FECB2B"/>
<path d="M196.258 31.9199C196.272 31.94 196.286 31.9601 196.3 31.9802C196.286 31.9601 196.272 31.9387 196.258 31.9199Z" fill="#FECB2B"/>
<path d="M196.959 33.0797C196.975 33.1116 196.991 33.1435 197.007 33.1768C196.991 33.1449 196.975 33.1116 196.959 33.0797Z" fill="#FECB2B"/>
<path d="M193.776 34.6743C193.776 34.6743 193.779 34.6806 193.781 34.6838C193.779 34.6806 193.777 34.6775 193.776 34.6743Z" fill="#FECB2B"/>
<path d="M193.827 34.7794C193.833 34.7914 193.839 34.8033 193.845 34.8153C193.839 34.8033 193.833 34.7914 193.827 34.7794Z" fill="#FECB2B"/>
<path d="M193.668 34.4695C193.668 34.4695 193.674 34.4791 193.676 34.4845C193.674 34.4804 193.671 34.475 193.668 34.4695Z" fill="#FECB2B"/>
<path d="M197.109 33.3949C197.124 33.4268 197.138 33.4574 197.153 33.4893C197.138 33.4574 197.124 33.4255 197.109 33.3949Z" fill="#FECB2B"/>
<path d="M194.91 38.8199C194.925 38.917 194.938 39.0168 194.951 39.1179C194.938 39.0168 194.925 38.9184 194.91 38.8199Z" fill="#FECB2B"/>
<path d="M194.687 37.5352C194.702 37.6083 194.716 37.6815 194.731 37.7573C194.716 37.6828 194.702 37.6083 194.687 37.5352Z" fill="#FECB2B"/>
<path d="M194.962 39.2016C194.976 39.3107 194.99 39.4211 195.003 39.5328C194.99 39.4197 194.975 39.3107 194.962 39.2016Z" fill="#FECB2B"/>
<path d="M194.745 37.8344C194.763 37.9262 194.78 38.018 194.796 38.1124C194.78 38.018 194.763 37.9249 194.745 37.8344Z" fill="#FECB2B"/>
<path d="M194.804 38.1536C194.818 38.2387 194.833 38.3252 194.848 38.4116C194.833 38.3238 194.818 38.2387 194.804 38.1536Z" fill="#FECB2B"/>
<path d="M194.86 38.4914C194.876 38.5912 194.892 38.6936 194.906 38.7973C194.892 38.6936 194.876 38.5925 194.86 38.4914Z" fill="#FECB2B"/>
<path d="M194.561 36.9619C194.576 37.0231 194.59 37.0856 194.605 37.1494C194.59 37.0856 194.576 37.0231 194.561 36.9619Z" fill="#FECB2B"/>
<path d="M190.254 34.3751C191.299 33.5744 192.192 33.2286 192.705 33.4241C192.951 33.5186 193.228 33.7686 193.507 34.1982C193.798 34.399 194.151 34.5174 194.541 34.5174C195.523 34.5174 196.465 33.6516 196.419 32.6341C196.409 32.3814 196.352 32.1394 196.258 31.9172C195.614 31.0395 194.85 30.4277 193.971 30.0925C192.208 29.4195 190.231 29.9063 188.097 31.5409C186.099 33.0704 183.912 35.6093 181.408 39.304C180.004 41.3749 178.733 43.3486 177.504 45.2584C175.204 48.8308 173.186 51.9643 171.349 54.0564C171.63 53.8928 171.951 53.7984 172.275 53.7984C173.328 53.7984 174.107 54.6615 174.153 55.6816C174.165 55.941 174.112 56.191 174.01 56.4198C176.029 54.1215 178.115 50.8817 180.49 47.1936C181.709 45.301 182.969 43.3446 184.348 41.3084C186.602 37.982 188.589 35.6492 190.255 34.3751H190.254Z" fill="#FECB2B"/>
<path d="M194.622 37.2279C194.641 37.3104 194.658 37.3942 194.677 37.4793C194.659 37.3942 194.641 37.3104 194.622 37.2279Z" fill="#FECB2B"/>
<path d="M197.153 33.4893C197.2 33.5931 197.246 33.6981 197.29 33.8059C197.246 33.6981 197.2 33.5931 197.153 33.4893Z" fill="#FECB2B"/>
<path d="M197.006 33.1768C197.041 33.2486 197.075 33.3204 197.11 33.3949C197.075 33.3217 197.042 33.2486 197.006 33.1768Z" fill="#FECB2B"/>
<path d="M194.906 38.7973C194.906 38.8056 194.909 38.8138 194.91 38.822C194.91 38.8138 194.907 38.8056 194.906 38.7973Z" fill="#FECB2B"/>
<path d="M196.656 32.5251C196.707 32.6115 196.758 32.6993 196.807 32.7897C196.758 32.6993 196.706 32.6115 196.656 32.5251Z" fill="#FECB2B"/>
<path d="M194.545 36.8941C194.551 36.9169 194.556 36.9396 194.561 36.9624C194.556 36.9396 194.551 36.9169 194.545 36.8941Z" fill="#FECB2B"/>
<path d="M193.676 34.4828C193.71 34.544 193.743 34.6065 193.778 34.673C193.744 34.6065 193.711 34.5427 193.676 34.4828Z" fill="#FECB2B"/>
<path d="M193.668 34.4695C193.614 34.3724 193.561 34.282 193.507 34.1995C193.561 34.2833 193.614 34.3724 193.668 34.4695Z" fill="#FECB2B"/>
<path d="M194.951 39.1179C194.955 39.146 194.959 39.1741 194.962 39.2022C194.958 39.1741 194.954 39.146 194.951 39.1179Z" fill="#FECB2B"/>
<path d="M196.828 32.8296C196.872 32.9108 196.916 32.9945 196.958 33.0797C196.916 32.9945 196.872 32.9121 196.828 32.8296Z" fill="#FECB2B"/>
<path d="M196.3 31.9798C196.344 32.0396 196.386 32.1008 196.427 32.1633C196.385 32.1008 196.342 32.0396 196.3 31.9798Z" fill="#FECB2B"/>
<path d="M196.491 32.2604C196.527 32.3162 196.563 32.3721 196.599 32.4306C196.563 32.3734 196.529 32.3162 196.491 32.2604Z" fill="#FECB2B"/>
<path d="M194.17 35.6133C194.18 35.6441 194.191 35.6736 194.202 35.7044C194.191 35.6736 194.18 35.6441 194.17 35.6133Z" fill="#FECB2B"/>
<path d="M194.322 36.0801C194.33 36.1083 194.34 36.1364 194.348 36.1645C194.34 36.1364 194.33 36.1083 194.322 36.0801Z" fill="#FECB2B"/>
<path d="M194.675 37.478C194.679 37.4967 194.683 37.5155 194.687 37.5342C194.683 37.5155 194.679 37.4967 194.675 37.478Z" fill="#FECB2B"/>
<path d="M194.256 35.87C194.265 35.8981 194.275 35.9276 194.284 35.957C194.275 35.9276 194.265 35.8981 194.256 35.87Z" fill="#FECB2B"/>
<path d="M194.468 36.5909C194.475 36.6176 194.483 36.6444 194.49 36.6712C194.483 36.6444 194.475 36.6176 194.468 36.5909Z" fill="#FECB2B"/>
<path d="M194.405 36.3581C194.413 36.3849 194.419 36.4117 194.426 36.4371C194.419 36.4103 194.411 36.3835 194.405 36.3581Z" fill="#FECB2B"/>
<path d="M194.605 37.1494C194.61 37.1749 194.617 37.2017 194.622 37.2271C194.617 37.2003 194.61 37.1749 194.605 37.1494Z" fill="#FECB2B"/>
<path d="M194.797 38.1124C194.8 38.1257 194.802 38.1403 194.804 38.1536C194.801 38.1403 194.798 38.1257 194.797 38.1124Z" fill="#FECB2B"/>
<path d="M193.845 34.8153C193.873 34.8738 193.901 34.9337 193.927 34.9962C193.899 34.9337 193.873 34.8738 193.845 34.8153Z" fill="#FECB2B"/>
<path d="M193.78 34.6823C193.796 34.7142 193.812 34.7462 193.828 34.7794C193.812 34.7462 193.796 34.7142 193.78 34.6823Z" fill="#FECB2B"/>
<path d="M194.848 38.4116C194.852 38.4384 194.856 38.4652 194.861 38.4906C194.857 38.4638 194.853 38.4371 194.848 38.4116Z" fill="#FECB2B"/>
<path d="M194.009 35.1917C194.028 35.2383 194.048 35.2861 194.067 35.3353C194.048 35.2861 194.028 35.2383 194.009 35.1917Z" fill="#FECB2B"/>
<path d="M194.731 37.7559C194.736 37.7814 194.74 37.8081 194.746 37.8336C194.74 37.8068 194.736 37.7814 194.731 37.7559Z" fill="#FECB2B"/>
<path d="M193.943 35.0321C193.956 35.064 193.971 35.0959 193.984 35.1292C193.971 35.0959 193.956 35.064 193.943 35.0321Z" fill="#FECB2B"/>
<path d="M194.102 35.4284C194.114 35.459 194.125 35.4909 194.137 35.5215C194.125 35.4896 194.114 35.459 194.102 35.4284Z" fill="#FECB2B"/>
<path d="M258.839 59.8312C258.273 59.8312 257.707 59.7887 257.137 59.7022C254.469 59.2992 252.172 57.4439 250.669 54.478C249.374 51.9217 248.717 48.6726 248.821 45.3289C248.939 41.5145 250.044 37.9262 251.932 35.2223C254.201 31.9718 257.503 30.0686 261.478 29.7201C265.523 29.365 268.826 30.292 271.294 32.4732C273.589 34.5014 274.573 37.1122 274.995 38.945C275.758 42.2553 275.312 45.5697 273.743 48.2762C271.277 52.5269 268.603 55.6471 265.796 57.5476C263.554 59.0665 261.22 59.8312 258.837 59.8312H258.839ZM263.102 33.2114C262.677 33.2114 262.241 33.2313 261.789 33.2712C258.852 33.5292 256.516 34.8738 254.844 37.2678C253.348 39.4091 252.471 42.3125 252.375 45.4407C252.291 48.1565 252.824 50.8617 253.839 52.8647C254.523 54.216 255.744 55.8891 257.667 56.1791C259.759 56.4956 261.767 55.9769 263.808 54.595C266.167 52.9964 268.477 50.2686 270.672 46.4847C271.786 44.5655 272.091 42.1729 271.533 39.747C271.228 38.4223 270.532 36.5496 268.945 35.1465C267.489 33.8591 265.528 33.21 263.103 33.21L263.102 33.2114Z" fill="#1D1D1B"/>
<path d="M333.767 54.8783C333.28 54.0231 332.196 53.7252 331.343 54.2133C331.314 54.2306 328.344 55.8931 324.244 56.5022C318.915 57.2936 314.23 56.0141 310.322 52.6985C306.123 49.1354 301.721 47.683 297.242 48.3813C296.738 48.4598 296.235 48.5662 295.731 48.6992C295.742 48.6992 295.754 48.6992 295.764 48.6992C296.817 48.6992 297.596 49.5623 297.642 50.5824C297.669 51.1876 297.347 51.7395 296.874 52.0867C297.179 52.0122 297.483 51.9523 297.787 51.9045C299.359 51.6597 300.941 51.7728 302.492 52.2396C304.329 52.7942 306.192 53.8635 308.026 55.4196C310.642 57.6381 313.601 59.1184 316.822 59.8193C318.265 60.1331 319.759 60.2901 321.288 60.2901C322.472 60.2901 323.677 60.1956 324.899 60.0081C329.621 59.2806 332.961 57.3907 333.102 57.3109C333.955 56.8228 334.252 55.7335 333.767 54.8783V54.8783Z" fill="#FECB2B"/>
<path d="M297.644 50.5811C297.599 49.561 296.819 48.6978 295.765 48.6978C295.755 48.6978 295.743 48.6978 295.732 48.6978C293.226 49.3588 290.714 50.6981 288.097 52.765C285.51 54.8065 282.68 56.07 281.144 56.3812C279.365 56.7416 276.847 56.9691 275.532 54.7945C274.313 52.7769 274.185 48.9625 275.178 44.3314C276.082 40.1233 277.646 36.543 278.426 35.5761C279.044 34.8113 278.926 33.6888 278.163 33.0704C277.4 32.4506 276.281 32.569 275.664 33.3337C274.275 35.0534 272.61 39.3626 271.704 43.5813C270.164 50.75 271.284 54.6403 272.492 56.6419C273.374 58.1022 274.612 59.125 276.173 59.6836C277.761 60.2515 279.67 60.3167 281.847 59.8764C283.847 59.4721 287.236 57.9825 290.296 55.5673C292.611 53.7398 294.773 52.5947 296.877 52.0867C297.349 51.7395 297.672 51.1876 297.645 50.5824L297.644 50.5811Z" fill="#70B852"/>
<path d="M174.153 55.683C174.108 54.6629 173.328 53.7997 172.275 53.7997C171.95 53.7997 171.63 53.8955 171.349 54.0577C171.141 54.2945 170.935 54.5179 170.732 54.728C168.279 57.2497 167.145 56.6632 166.535 56.348C166.267 56.2096 165.637 55.8838 165.61 54.0324C165.587 52.3673 166.064 49.964 167.071 46.6855C168.176 43.0839 168.588 39.9558 168.295 37.3875C168.022 34.9909 167.153 33.077 165.714 31.7018C163.322 29.4182 159.938 29.2373 157.645 30.0699C156.232 30.5833 154.875 31.1605 153.579 31.7989C153.635 31.7936 153.692 31.7896 153.749 31.7896C154.802 31.7896 155.581 32.6527 155.627 33.6729C155.651 34.2208 155.389 34.7249 154.988 35.0733C156.211 34.4642 157.5 33.9123 158.856 33.4202C160.079 32.9759 161.98 33.0571 163.264 34.282C165.207 36.1373 165.353 40.1699 163.675 45.6362C162.542 49.3269 162.029 52.0108 162.058 54.0816C162.095 56.7283 163.054 58.5558 164.909 59.5134C166.389 60.2781 167.917 60.3991 169.452 59.8711C170.708 59.4402 171.96 58.5704 173.28 57.2125C173.523 56.9624 173.767 56.6964 174.012 56.4171C174.115 56.1884 174.168 55.9383 174.156 55.679L174.153 55.683Z" fill="#E6007E"/>
<path d="M154.985 35.0747C155.386 34.7262 155.649 34.2222 155.625 33.6742C155.58 32.6541 154.8 31.7909 153.746 31.7909C153.689 31.7909 153.632 31.7936 153.577 31.8002C153.68 31.7497 153.784 31.6991 153.888 31.6499C153.614 31.7816 153.34 31.9159 153.071 32.0543C153.066 32.0569 153.062 32.0596 153.057 32.0622C152.893 32.146 152.73 32.2298 152.57 32.3163C152.412 32.4001 152.254 32.4852 152.098 32.5716C152.079 32.5823 152.06 32.5916 152.042 32.6022C150.986 33.1848 149.975 33.8099 149.015 34.4762C148.594 32.956 147.889 31.7922 146.888 30.961C145.791 30.05 144.397 29.5951 142.744 29.6164C141.17 29.6337 139.382 30.0686 137.278 30.9464C133.573 32.4905 130.177 34.5094 127.218 36.9127C126.973 35.6413 126.654 34.5294 126.266 33.5904C125.452 31.6247 124.302 30.3492 122.849 29.7999C121.461 29.2759 119.936 29.4488 118.297 30.3093C118.384 30.296 118.47 30.2894 118.557 30.2894C119.611 30.2894 120.389 31.1525 120.436 32.1726C120.458 32.69 120.226 33.1675 119.864 33.5119C120.584 33.1183 121.189 32.9813 121.596 33.1355C122.443 33.4561 123.522 35.2795 124.011 39.4384C124.025 39.5594 124.038 39.6791 124.05 39.8015C123.31 40.5609 122.607 41.3496 121.948 42.1636C118.823 46.0166 116.753 50.3111 116.269 53.946C115.835 57.2085 116.84 58.7446 117.759 59.4588C119.036 60.451 120.523 60.6731 121.948 60.0866C124.692 58.9548 126.772 54.9315 127.511 49.3256C127.775 47.3266 127.913 44.237 127.73 41.1807C130.797 38.3279 134.514 35.9565 138.643 34.2355C140.654 33.3976 143.323 32.6248 144.623 33.7048C145.291 34.2607 145.711 35.3726 145.863 36.9699C144.663 38.0512 143.566 39.211 142.584 40.4386C138.692 45.3063 137.634 49.8842 137.348 52.1798C137.155 53.7385 137.193 55.2015 137.46 56.4078C137.775 57.8402 138.415 58.9175 139.31 59.524C140.422 60.2781 141.651 60.443 142.772 59.9882C145.047 59.0652 146.617 55.8093 148.02 49.1008C148.651 46.0791 149.336 42.5918 149.463 39.4384C149.475 39.1378 149.482 38.8452 149.483 38.5593C149.885 38.2387 150.299 37.9275 150.723 37.6243C150.743 37.6043 150.763 37.5844 150.783 37.5631C150.763 37.5844 150.743 37.6043 150.723 37.6243C152.038 36.6853 153.463 35.8341 154.989 35.0733L154.985 35.0747ZM123.987 48.8574C123.693 51.0852 123.15 53.0549 122.413 54.5538C121.566 56.2801 120.807 56.7004 120.595 56.7882C120.46 56.8441 120.292 56.9119 119.947 56.6499C119.821 56.4916 119.487 55.53 119.979 53.3887C120.587 50.7513 122.115 47.7589 124.247 44.9898C124.216 46.494 124.118 47.8546 123.985 48.8574H123.987ZM144.537 48.3707C144.018 50.8551 143.493 52.7623 142.932 54.2027C142.187 56.1139 141.608 56.5781 141.467 56.6672C141.435 56.6539 141.382 56.6286 141.308 56.5781C141.029 56.3227 140.451 54.7161 141.015 51.7156C141.365 49.8563 142.427 46.1934 145.628 42.3311C145.356 44.366 144.935 46.4621 144.537 48.3693V48.3707Z" fill="#1D1D1B"/>
<path d="M27.3694 1.09991C26.7128 1.38586 26.2379 2.05085 26.2379 2.79831C26.2379 3.80113 27.0816 4.64701 28.0817 4.64701C28.1693 4.64701 28.2555 4.6377 28.3404 4.62573C30.4097 3.97935 32.4777 3.64818 34.5059 3.64818C35.1002 3.64818 35.6984 3.67611 36.2834 3.73197C40.873 4.16954 45.0369 6.31349 47.7071 9.61188C49.8335 12.2386 50.4967 15.4546 50.6784 17.6903C50.88 20.176 50.5524 22.046 50.5498 22.0646C50.3654 23.0502 51.0167 24.0051 52.0023 24.1913C52.1137 24.2126 52.2278 24.2232 52.3405 24.2232C53.2133 24.2232 53.9655 23.5981 54.1273 22.7363C54.1963 22.3719 55.7416 13.7468 50.5325 7.31232C47.2508 3.25849 42.1823 0.629088 36.6283 0.0997497C35.9372 0.0332499 35.2288 0 34.5231 0C32.0187 0 29.4745 0.414959 26.9502 1.23158C27.0895 1.18636 27.2288 1.14247 27.3694 1.09991V1.09991Z" fill="#1D1D1B"/>
</svg>
